<svg id="Layer_1" data-name="Layer 1" xmlns="http://www.w3.org/2000/svg" viewBox="0 0 572.71 780.84"><path d="M321,630.6,538.12,505.22a69.38,69.38,0,0,0,34.59-59.91V194.54a69.38,69.38,0,0,0-34.59-59.92L321,9.23a69.49,69.49,0,0,0-69.21,0L34.6,134.62A69.37,69.37,0,0,0,0,194.54V445.31a69.37,69.37,0,0,0,34.6,59.91L251.75,630.6A69.37,69.37,0,0,0,321,630.6Zm-62.17-12.19L41.63,493a55.25,55.25,0,0,1-27.56-47.72V194.54a55.26,55.26,0,0,1,27.56-47.73L258.79,21.42a55.32,55.32,0,0,1,55.13,0L531.08,146.81a55.26,55.26,0,0,1,27.56,47.73V445.31A55.25,55.25,0,0,1,531.08,493L313.92,618.41a55.3,55.3,0,0,1-55.13,0Z" style="fill:#fff"/><path d="M286.35,144.88A38.58,38.58,0,0,1,305.66,150l118.16,68.22a38.73,38.73,0,0,1,19.31,33.44V388.15a38.7,38.7,0,0,1-19.31,33.43L305.66,489.81a38.74,38.74,0,0,1-38.61,0L148.88,421.58a38.71,38.71,0,0,1-19.3-33.43V251.7a38.74,38.74,0,0,1,19.3-33.44L267.05,150A38.57,38.57,0,0,1,286.35,144.88Zm0,340.5a29.09,29.09,0,0,0,14.52-3.87L419,413.29a29.11,29.11,0,0,0,14.52-25.14V251.7A29.1,29.1,0,0,0,419,226.56L300.87,158.34a29.11,29.11,0,0,0-29,0L153.68,226.56a29.1,29.1,0,0,0-14.52,25.14V388.15a29.11,29.11,0,0,0,14.52,25.14l118.16,68.22A29.08,29.08,0,0,0,286.35,485.38Z" style="fill:#94bedd"/><path d="M279.33,255l-16.75-33.78-16.74-33.77a30.35,30.35,0,0,1,0-27l16.74-33.78,16.75-33.78a7.85,7.85,0,0,1,14.05,0l16.74,33.78,16.75,33.78a30.35,30.35,0,0,1,0,27l-16.75,33.77L293.38,255a7.84,7.84,0,0,1-14.05,0Z" style="fill:#1c9ef3"/><path d="M356.44,312l33.77-16.74L424,278.49a30.35,30.35,0,0,1,27,0l33.78,16.75L518.51,312a7.84,7.84,0,0,1,0,14l-33.77,16.75L451,359.52a30.35,30.35,0,0,1-27,0l-33.78-16.74L356.44,326a7.84,7.84,0,0,1,0-14Z" style="fill:#1c9ef3"/><path d="M54.19,312,88,295.24l33.78-16.75a30.35,30.35,0,0,1,27,0l33.77,16.75L216.27,312a7.84,7.84,0,0,1,0,14l-33.78,16.75-33.77,16.74a30.35,30.35,0,0,1-27,0L88,342.78,54.19,326a7.85,7.85,0,0,1,0-14Z" style="fill:#1c9ef3"/><path d="M292.22,303.57l12-35.72,12-35.73a30.34,30.34,0,0,1,19.07-19.07l35.73-12,35.72-12a7.83,7.83,0,0,1,9.93,9.93l-12,35.72-12,35.73a30.34,30.34,0,0,1-19.07,19.07l-35.73,12-35.72,12a7.83,7.83,0,0,1-9.93-9.93Z" style="fill:#1c9ef3"/><path d="M270.56,313.5l-35.73-12-35.72-12A30.34,30.34,0,0,1,180,270.35l-12-35.73L156,198.9a7.84,7.84,0,0,1,9.94-9.93l35.72,12,35.73,12a30.34,30.34,0,0,1,19.07,19.07l12,35.73,12,35.72a7.83,7.83,0,0,1-9.93,9.93Z" style="fill:#1c9ef3"/><path d="M293.38,384.86l16.74,33.77,16.75,33.78a30.35,30.35,0,0,1,0,27l-16.75,33.78-16.74,33.77a7.84,7.84,0,0,1-14.05,0l-16.75-33.77-16.74-33.78a30.35,30.35,0,0,1,0-27l16.74-33.78,16.75-33.77a7.84,7.84,0,0,1,14.05,0Z" style="fill:#1c9ef3"/><path d="M280.49,336.27l-12,35.73-12,35.73a30.41,30.41,0,0,1-19.07,19.07l-35.73,12-35.72,12A7.85,7.85,0,0,1,156,441L168,405.22l12-35.72a30.34,30.34,0,0,1,19.07-19.07l35.72-12.05,35.73-12a7.84,7.84,0,0,1,9.93,9.93Z" style="fill:#1c9ef3"/><path d="M302.15,326.34l35.72,12,35.73,12.05a30.34,30.34,0,0,1,19.07,19.07l12,35.72,12,35.73a7.84,7.84,0,0,1-9.93,9.93l-35.72-12-35.73-12a30.41,30.41,0,0,1-19.07-19.07l-12-35.73-12-35.73a7.84,7.84,0,0,1,9.93-9.93Z" style="fill:#1c9ef3"/><path d="M72.23,780.84H58.48V756.76H13.76v24.08H0V708.61a11.62,11.62,0,0,1,3.52-8.52A11.64,11.64,0,0,1,12,696.57H72.23ZM58.48,744.73V708.61H13.76v46.44l10.32-10.32Z" style="fill:#fff"/><path d="M168.55,780.84H151l-35.77-36.11h37.84V708.61H108.35v72.23H94.59V720.48l12-11.87h-12v-12h60.2a12.36,12.36,0,0,1,12,12v32.68q0,13.76-12,13.76H144.47v1.89Z" style="fill:#fff"/><path d="M257.12,768.8a12,12,0,0,1-12,12h-60.2V720.65l12-12h-12v-12H233a12,12,0,0,1,12,12v24.08h.34a11,11,0,0,1,8.34,3.52,11.9,11.9,0,0,1,3.36,8.52Zm-25.8-36.11V708.61H198.64V743L209,732.69Zm12,36.11V744.73H198.64V768.8Z" style="fill:#fff"/><path d="M348.27,780.67H324.19L291.51,709.3h-6.88l5.16,8.6v62.77H276V696.4h24.24l32.51,71.37h6.88l-5.16-8.6V696.4h13.76Z" style="fill:#fff"/><path d="M442,768.8a12,12,0,0,1-12,12H381.81a12,12,0,0,1-12-12V708.61a12,12,0,0,1,12-12H430a12,12,0,0,1,12,12Zm-13.76,0V708.61H383.53V768.8Z" style="fill:#fff"/><path d="M572.71,696.57l-18.92,84.27H530.57L514.24,719.1h-1.72l-16.34,61.74H473L454,696.57h15.48l13.76,72.58h3.44l19.78-72.58h13.75L540,769.15h3.44l13.76-72.58Z" style="fill:#fff"/></svg>