<svg id="Layer_1" data-name="Layer 1" xmlns="http://www.w3.org/2000/svg" viewBox="0 0 807.44 250"><path d="M125.4,246.39l84.85-49A27.11,27.11,0,0,0,223.77,174V76A27.1,27.1,0,0,0,210.25,52.6l-84.85-49a27.12,27.12,0,0,0-27,0l-84.84,49A27.1,27.1,0,0,0,0,76v98A27.11,27.11,0,0,0,13.52,197.4l84.84,49A27.14,27.14,0,0,0,125.4,246.39Zm-24.29-4.77-84.84-49A21.59,21.59,0,0,1,5.5,174V76A21.59,21.59,0,0,1,16.27,57.36l84.84-49a21.63,21.63,0,0,1,21.54,0l84.85,49A21.59,21.59,0,0,1,218.27,76v98a21.59,21.59,0,0,1-10.77,18.65l-84.85,49a21.58,21.58,0,0,1-21.54,0Z" style="fill:#fff"/><path d="M111.88,56.61a15.14,15.14,0,0,1,7.55,2L165.6,85.28a15.13,15.13,0,0,1,7.54,13.06v53.32a15.13,15.13,0,0,1-7.54,13.06l-46.17,26.66a15.17,15.17,0,0,1-15.09,0L58.17,164.72a15.13,15.13,0,0,1-7.54-13.06V98.34a15.13,15.13,0,0,1,7.54-13.06l46.17-26.66A15.13,15.13,0,0,1,111.88,56.61Zm0,133a11.35,11.35,0,0,0,5.68-1.52l46.16-26.65a11.39,11.39,0,0,0,5.68-9.82V98.34a11.37,11.37,0,0,0-5.68-9.82L117.56,61.87a11.39,11.39,0,0,0-11.35,0L60,88.52a11.39,11.39,0,0,0-5.67,9.82v53.32A11.4,11.4,0,0,0,60,161.48l46.17,26.65A11.35,11.35,0,0,0,111.88,189.65Z" style="fill:#94bedd"/><path d="M109.14,99.63l-6.54-13.2-6.55-13.2a11.88,11.88,0,0,1,0-10.53l6.55-13.2,6.54-13.2a3.07,3.07,0,0,1,5.49,0l6.54,13.2,6.54,13.2a11.8,11.8,0,0,1,0,10.53l-6.54,13.2-6.54,13.2a3.07,3.07,0,0,1-5.49,0Z" style="fill:#1c9ef3"/><path d="M139.27,121.9l13.19-6.55,13.2-6.54a11.9,11.9,0,0,1,10.54,0l13.2,6.54,13.19,6.55a3.07,3.07,0,0,1,0,5.49l-13.19,6.54-13.2,6.54a11.82,11.82,0,0,1-10.54,0l-13.2-6.54-13.19-6.54a3.06,3.06,0,0,1,0-5.49Z" style="fill:#1c9ef3"/><path d="M21.17,121.9l13.2-6.55,13.2-6.54a11.9,11.9,0,0,1,10.54,0l13.19,6.54,13.2,6.55a3.07,3.07,0,0,1,0,5.49l-13.2,6.54-13.19,6.54a11.82,11.82,0,0,1-10.54,0l-13.2-6.54-13.2-6.54a3.07,3.07,0,0,1,0-5.49Z" style="fill:#1c9ef3"/><path d="M114.17,118.61l4.71-14,4.7-14a11.89,11.89,0,0,1,2.86-4.59,11.74,11.74,0,0,1,4.6-2.86l14-4.7,14-4.71a3,3,0,0,1,3.15.74,3,3,0,0,1,.73,3.14l-4.7,14-4.71,14a11.83,11.83,0,0,1-7.45,7.45l-14,4.71-14,4.7a3,3,0,0,1-3.14-.73A3.05,3.05,0,0,1,114.17,118.61Z" style="fill:#1c9ef3"/><path d="M105.71,122.49l-14-4.7-14-4.71a11.71,11.71,0,0,1-4.6-2.85,11.93,11.93,0,0,1-2.86-4.6l-4.7-14-4.71-14a3.07,3.07,0,0,1,3.88-3.88l14,4.71,14,4.7a11.89,11.89,0,0,1,7.45,7.45l4.71,14,4.7,14a3.05,3.05,0,0,1-3.88,3.88Z" style="fill:#1c9ef3"/><path d="M114.63,150.37l6.54,13.2,6.54,13.19a11.82,11.82,0,0,1,0,10.54l-6.54,13.2-6.54,13.2a3.07,3.07,0,0,1-5.49,0l-6.54-13.2-6.55-13.2a11.9,11.9,0,0,1,0-10.54l6.55-13.19,6.54-13.2a3.07,3.07,0,0,1,5.49,0Z" style="fill:#1c9ef3"/><path d="M109.59,131.39l-4.7,14-4.71,14a11.89,11.89,0,0,1-7.45,7.45l-14,4.7-14,4.71a3.07,3.07,0,0,1-3.88-3.88l4.71-14,4.7-14a11.93,11.93,0,0,1,2.86-4.6,11.71,11.71,0,0,1,4.6-2.85l14-4.71,14-4.7a3.05,3.05,0,0,1,3.88,3.88Z" style="fill:#1c9ef3"/><path d="M118.05,127.51l14,4.7,14,4.71a11.83,11.83,0,0,1,7.45,7.45l4.71,14,4.7,14a3,3,0,0,1-.73,3.14,3,3,0,0,1-3.15.74l-14-4.71-14-4.7a11.74,11.74,0,0,1-4.6-2.86,11.89,11.89,0,0,1-2.86-4.59l-4.7-14-4.71-14a3.05,3.05,0,0,1,.74-3.15A3,3,0,0,1,118.05,127.51Z" style="fill:#1c9ef3"/><path d="M330.34,165.25H317.22V142.3H274.6v22.95H261.48V96.39A11.47,11.47,0,0,1,273,84.91h57.38Zm-13.12-34.43V96.39H274.6v44.27l9.83-9.84Z" style="fill:#fff"/><path d="M422.15,165.25H405.43l-34.1-34.43H407.4V96.39H364.77v68.86H351.65V107.7l11.48-11.31H351.65V84.91H409a11.77,11.77,0,0,1,11.47,11.48v31.15q0,13.12-11.47,13.12H399.2v1.8Z" style="fill:#fff"/><path d="M506.59,153.77a11.47,11.47,0,0,1-11.48,11.48H437.73V107.87l11.48-11.48H437.73V84.91h45.91a11.47,11.47,0,0,1,11.47,11.48v23h.33a10.56,10.56,0,0,1,7.95,3.36,11.38,11.38,0,0,1,3.2,8.12ZM482,119.34v-23H450.85v32.79l9.83-9.84Zm11.47,34.43v-23H450.85v23Z" style="fill:#fff"/><path d="M593.48,165.09h-23l-31.15-68h-6.56l4.92,8.19v59.85H524.62V84.75h23.12l31,68h6.56l-4.92-8.2V84.75h13.11Z" style="fill:#fff"/><path d="M682.84,153.77a11.47,11.47,0,0,1-11.48,11.48H625.45A11.47,11.47,0,0,1,614,153.77V96.39a11.47,11.47,0,0,1,11.47-11.48h45.91a11.47,11.47,0,0,1,11.48,11.48Zm-13.12,0V96.39H627.09v57.38Z" style="fill:#fff"/><path d="M807.44,84.91l-18,80.34H767.27L751.7,106.39h-1.64l-15.58,58.86H712.35l-18-80.34h14.76l13.12,69.19h3.28l18.85-69.19h13.12l18.85,69.19h3.28l13.12-69.19Z" style="fill:#fff"/></svg>