<svg id="Layer_1" data-name="Layer 1" xmlns="http://www.w3.org/2000/svg" xmlns:xlink="http://www.w3.org/1999/xlink" viewBox="0 0 1920 1080"><defs><clipPath id="clip-path"><rect width="1920" height="1080" style="fill:none"/></clipPath><clipPath id="clip-path-2"><rect x="-1958.2" width="1920" height="1080" style="fill:none"/></clipPath></defs><g style="clip-path:url(#clip-path)"><rect width="1920" height="1080"/><g style="opacity:0.1"><path d="M1906.67,160.24l-31.79-64.12L1843.08,32a57.63,57.63,0,0,1,0-51.21l31.8-64.12,31.79-64.12a14.71,14.71,0,0,1,13.33-8.27,14.71,14.71,0,0,1,13.33,8.27l31.79,64.12,31.8,64.12a57.63,57.63,0,0,1,0,51.21l-31.8,64.12-31.79,64.12a14.88,14.88,0,0,1-26.66,0Z" style="fill:#fff"/><path d="M1479.26,268.44l64.12-31.79,64.12-31.8a57.7,57.7,0,0,1,51.2,0l64.13,31.8L1787,268.44a14.88,14.88,0,0,1,0,26.66l-64.12,31.8-64.13,31.79a57.61,57.61,0,0,1-51.2,0l-64.12-31.79-64.12-31.8a14.88,14.88,0,0,1,0-26.66Z" style="fill:#fff"/><path d="M1890,271.33l-67.83-22.86-67.82-22.86a57.73,57.73,0,0,1-36.21-36.21l-22.86-67.82-22.86-67.83A14.88,14.88,0,0,1,1691.3,34.9l67.82,22.86,67.82,22.86a57.6,57.6,0,0,1,36.21,36.21L1886,184.65l22.86,67.82A14.88,14.88,0,0,1,1890,271.33Z" style="fill:#fff"/><path d="M1933.33,406.79l31.79,64.12,31.8,64.12a57.61,57.61,0,0,1,0,51.2l-31.8,64.13-31.79,64.12a14.88,14.88,0,0,1-26.66,0l-31.79-64.12-31.8-64.13a57.61,57.61,0,0,1,0-51.2l31.8-64.12,31.79-64.12a14.88,14.88,0,0,1,26.66,0Z" style="fill:#fff"/><path d="M1908.87,314.55,1886,382.38l-22.86,67.82a57.6,57.6,0,0,1-36.21,36.21l-67.82,22.86-67.82,22.86a14.89,14.89,0,0,1-18.86-18.86l22.86-67.82,22.86-67.82a57.66,57.66,0,0,1,36.21-36.21l67.82-22.86L1890,295.7a14.88,14.88,0,0,1,18.85,18.85Z" style="fill:#fff"/></g><g style="opacity:0.1"><path d="M168.5,772.7l-31.79-64.12-31.8-64.12a57.7,57.7,0,0,1,0-51.2l31.8-64.13L168.5,465a14.88,14.88,0,0,1,26.66,0L227,529.13l31.79,64.13a57.61,57.61,0,0,1,0,51.2L227,708.58l-31.8,64.12a14.88,14.88,0,0,1-26.66,0Z" style="fill:none;stroke:#fff;stroke-miterlimit:10;stroke-width:10px"/><path d="M314.88,880.9,379,849.11l64.12-31.79a57.61,57.61,0,0,1,51.2,0l64.12,31.79,64.13,31.79a14.89,14.89,0,0,1,0,26.67l-64.13,31.79-64.12,31.79a57.61,57.61,0,0,1-51.2,0L379,939.36l-64.13-31.79a14.89,14.89,0,0,1,0-26.67Z" style="fill:none;stroke:#fff;stroke-miterlimit:10;stroke-width:10px"/><path d="M-258.91,880.9l64.12-31.79,64.13-31.79a57.57,57.57,0,0,1,25.6-6,57.63,57.63,0,0,1,25.6,6l64.12,31.79L48.78,880.9a14.89,14.89,0,0,1,0,26.67l-64.12,31.79-64.12,31.79a57.63,57.63,0,0,1-25.6,6,57.57,57.57,0,0,1-25.6-6l-64.13-31.79-64.12-31.79a14.73,14.73,0,0,1-8.27-13.34A14.73,14.73,0,0,1-258.91,880.9Z" style="fill:none;stroke:#fff;stroke-miterlimit:10;stroke-width:10px"/><path d="M193,864.94l22.86-67.83,22.86-67.82a57.73,57.73,0,0,1,36.21-36.21l67.82-22.86,67.83-22.86a14.88,14.88,0,0,1,18.85,18.86L406.53,734l-22.86,67.82a57.6,57.6,0,0,1-36.21,36.21l-67.82,22.86-67.82,22.86A14.88,14.88,0,0,1,193,864.94Z" style="fill:none;stroke:#fff;stroke-miterlimit:10;stroke-width:10px"/><path d="M151.85,883.79,84,860.93,16.2,838.07A57.62,57.62,0,0,1-20,801.86L-42.86,734l-22.86-67.82a14.72,14.72,0,0,1,3.57-15.28,14.74,14.74,0,0,1,15.28-3.58L21,670.22l67.83,22.86A57.68,57.68,0,0,1,125,729.29l22.86,67.82,22.86,67.83a14.88,14.88,0,0,1-18.85,18.85Z" style="fill:none;stroke:#fff;stroke-miterlimit:10;stroke-width:10px"/><path d="M195.16,1019.25l31.8,64.12,31.79,64.13a57.61,57.61,0,0,1,0,51.2L227,1262.82l-31.8,64.12a14.88,14.88,0,0,1-26.66,0l-31.79-64.12-31.8-64.12a57.7,57.7,0,0,1,0-51.2l31.8-64.13,31.79-64.12a14.88,14.88,0,0,1,26.66,0Z" style="fill:none;stroke:#fff;stroke-miterlimit:10;stroke-width:10px"/><path d="M170.7,927l-22.86,67.82L125,1062.66a57.62,57.62,0,0,1-36.2,36.21L21,1121.73l-67.82,22.86A14.72,14.72,0,0,1-62.15,1141a14.7,14.7,0,0,1-3.57-15.27l22.86-67.83L-20,990.09a57.68,57.68,0,0,1,36.2-36.21L84,931l67.83-22.86A14.88,14.88,0,0,1,170.7,927Z" style="fill:none;stroke:#fff;stroke-miterlimit:10;stroke-width:10px"/><path d="M211.82,908.16,279.64,931l67.82,22.86a57.66,57.66,0,0,1,36.21,36.21l22.86,67.82,22.86,67.83a14.88,14.88,0,0,1-18.85,18.85l-67.83-22.86-67.82-22.86a57.66,57.66,0,0,1-36.21-36.21l-22.86-67.82L193,927a14.89,14.89,0,0,1,18.86-18.86Z" style="fill:none;stroke:#fff;stroke-miterlimit:10;stroke-width:10px"/></g></g><path d="M94.35,156.42l43.53-25.13a13.92,13.92,0,0,0,6.94-12V69a13.91,13.91,0,0,0-6.94-12L94.35,31.85a13.94,13.94,0,0,0-13.88,0L36.94,57A13.91,13.91,0,0,0,30,69v50.27a13.92,13.92,0,0,0,6.94,12l43.53,25.13A13.93,13.93,0,0,0,94.35,156.42ZM81.88,154,38.35,128.84a11.07,11.07,0,0,1-5.53-9.57V69a11.08,11.08,0,0,1,5.53-9.57L81.88,34.29a11.12,11.12,0,0,1,11.05,0l43.54,25.14A11.07,11.07,0,0,1,142,69v50.27a11.06,11.06,0,0,1-5.52,9.57L92.93,154a11.12,11.12,0,0,1-11.05,0Z" style="fill:#fff"/><path d="M87.41,59.05a7.74,7.74,0,0,1,3.87,1L115,73.76a7.75,7.75,0,0,1,3.87,6.7v27.36a7.76,7.76,0,0,1-3.87,6.7L91.28,128.2a7.8,7.8,0,0,1-7.74,0L59.85,114.52a7.76,7.76,0,0,1-3.87-6.7V80.46a7.75,7.75,0,0,1,3.87-6.7L83.54,60.08A7.71,7.71,0,0,1,87.41,59.05Zm0,68.26a5.83,5.83,0,0,0,2.91-.78L114,112.86a5.85,5.85,0,0,0,2.91-5V80.46a5.85,5.85,0,0,0-2.91-5L90.32,61.74a5.87,5.87,0,0,0-5.82,0L60.81,75.42a5.83,5.83,0,0,0-2.91,5v27.36a5.83,5.83,0,0,0,2.91,5L84.5,126.53A5.8,5.8,0,0,0,87.41,127.31Z" style="fill:#94bedd"/><path d="M86,81.12l-3.36-6.77-3.35-6.77a6,6,0,0,1,0-5.41l3.35-6.77L86,48.63a1.57,1.57,0,0,1,2.82,0l3.35,6.77,3.36,6.77a6.12,6.12,0,0,1,0,5.41l-3.36,6.77-3.35,6.77a1.58,1.58,0,0,1-2.82,0Z" style="fill:#1c9ef3"/><path d="M101.46,92.55l6.77-3.36L115,85.83a6.12,6.12,0,0,1,5.41,0l6.77,3.36L134,92.55a1.53,1.53,0,0,1,.87,1.4,1.56,1.56,0,0,1-.87,1.41l-6.77,3.36-6.77,3.36a6.12,6.12,0,0,1-5.41,0l-6.77-3.36-6.77-3.36a1.57,1.57,0,0,1-.88-1.41A1.54,1.54,0,0,1,101.46,92.55Z" style="fill:#1c9ef3"/><path d="M40.86,92.55l6.78-3.36,6.77-3.36a6.1,6.1,0,0,1,5.4,0l6.78,3.36,6.77,3.36a1.53,1.53,0,0,1,.87,1.4,1.56,1.56,0,0,1-.87,1.41l-6.77,3.36-6.78,3.36a6.1,6.1,0,0,1-5.4,0l-6.77-3.36-6.78-3.36A1.56,1.56,0,0,1,40,94,1.53,1.53,0,0,1,40.86,92.55Z" style="fill:#1c9ef3"/><path d="M88.58,90.86,91,83.7l2.41-7.16a6.16,6.16,0,0,1,3.82-3.83l7.17-2.41,7.16-2.42a1.57,1.57,0,0,1,1.61.38,1.54,1.54,0,0,1,.38,1.61L111.14,77l-2.42,7.16A6.05,6.05,0,0,1,104.9,88l-7.16,2.42-7.17,2.41A1.54,1.54,0,0,1,89,92.47,1.57,1.57,0,0,1,88.58,90.86Z" style="fill:#1c9ef3"/><path d="M84.24,92.85l-7.16-2.41L69.92,88a6.06,6.06,0,0,1-2.36-1.46,6.16,6.16,0,0,1-1.47-2.36L63.68,77l-2.41-7.17a1.56,1.56,0,0,1,.37-1.61,1.59,1.59,0,0,1,1.62-.38l7.16,2.42,7.16,2.41a6.08,6.08,0,0,1,2.36,1.47,5.88,5.88,0,0,1,1.46,2.36l2.42,7.16,2.41,7.16a1.57,1.57,0,0,1-2,2Z" style="fill:#1c9ef3"/><path d="M88.82,107.16l3.35,6.77,3.36,6.77a6.12,6.12,0,0,1,0,5.41l-3.36,6.77-3.35,6.77a1.58,1.58,0,0,1-2.82,0l-3.36-6.77-3.35-6.77a6,6,0,0,1,0-5.41l3.35-6.77L86,107.16a1.57,1.57,0,0,1,2.82,0Z" style="fill:#1c9ef3"/><path d="M86.23,97.42l-2.41,7.16-2.42,7.16a6,6,0,0,1-1.46,2.36,6.06,6.06,0,0,1-2.36,1.46L70.42,118l-7.16,2.41a1.57,1.57,0,0,1-2-2l2.41-7.16,2.41-7.16a6.14,6.14,0,0,1,3.83-3.83l7.16-2.41,7.16-2.41a1.57,1.57,0,0,1,2,2Z" style="fill:#1c9ef3"/><path d="M90.57,95.43l7.17,2.41,7.16,2.41a6.16,6.16,0,0,1,2.36,1.47,6.06,6.06,0,0,1,1.46,2.36l2.42,7.16,2.41,7.16a1.57,1.57,0,0,1-2,2L104.4,118l-7.17-2.42a6.11,6.11,0,0,1-3.82-3.82L91,104.58l-2.42-7.16A1.59,1.59,0,0,1,89,95.8,1.56,1.56,0,0,1,90.57,95.43Z" style="fill:#1c9ef3"/><path d="M199.5,114.79h-6.73V103H170.9v11.78h-6.73V79.46a5.87,5.87,0,0,1,5.88-5.89H199.5Zm-6.73-17.67V79.46H170.9v22.71l5-5Z" style="fill:#fff"/><path d="M246.61,114.79H238l-17.5-17.67H239V79.46H217.16v35.33h-6.73V85.26l5.89-5.8h-5.89V73.57h29.45a6.05,6.05,0,0,1,5.89,5.89v16q0,6.74-5.89,6.73h-5v.93Z" style="fill:#fff"/><path d="M289.93,108.9a5.87,5.87,0,0,1-5.89,5.89H254.6V85.35l5.89-5.89H254.6V73.57h23.56A5.87,5.87,0,0,1,284,79.46V91.24h.17A5.39,5.39,0,0,1,288.29,93a5.8,5.8,0,0,1,1.64,4.16ZM277.31,91.24V79.46h-16V96.28l5.05-5Zm5.89,17.66V97.12H261.33V108.9Z" style="fill:#fff"/><path d="M334.52,114.71H322.74l-16-34.92h-3.37L305.92,84v30.71h-6.73V73.49h11.86L327,108.4h3.36l-2.52-4.21V73.49h6.73Z" style="fill:#fff"/><path d="M380.37,108.9a5.89,5.89,0,0,1-5.89,5.89H350.92A5.89,5.89,0,0,1,345,108.9V79.46a5.89,5.89,0,0,1,5.89-5.89h23.56a5.89,5.89,0,0,1,5.89,5.89Zm-6.73,0V79.46H351.76V108.9Z" style="fill:#fff"/><path d="M444.3,73.57l-9.25,41.22H423.69l-8-30.2h-.84l-8,30.2H395.51l-9.25-41.22h7.57l6.73,35.5h1.68l9.67-35.5h6.73l9.68,35.5H430l6.73-35.5Z" style="fill:#fff"/><path d="M994.6,780.18,1211.76,654.8a69.37,69.37,0,0,0,34.6-59.91V344.12a69.37,69.37,0,0,0-34.6-59.92L994.6,158.81a69.47,69.47,0,0,0-69.2,0L708.24,284.2a69.37,69.37,0,0,0-34.6,59.92V594.89a69.37,69.37,0,0,0,34.6,59.91L925.4,780.18A69.35,69.35,0,0,0,994.6,780.18ZM932.43,768,715.28,642.61a55.25,55.25,0,0,1-27.56-47.72V344.12a55.25,55.25,0,0,1,27.56-47.73L932.43,171a55.33,55.33,0,0,1,55.14,0l217.15,125.39a55.25,55.25,0,0,1,27.56,47.73V594.89a55.25,55.25,0,0,1-27.56,47.72L987.57,768a55.32,55.32,0,0,1-55.14,0Z" style="fill:#fff"/><path d="M960,294.46a38.57,38.57,0,0,1,19.3,5.16l118.17,68.22a38.72,38.72,0,0,1,19.3,33.44V537.72a38.71,38.71,0,0,1-19.3,33.44L979.3,639.38a38.69,38.69,0,0,1-38.61,0L822.53,571.16a38.72,38.72,0,0,1-19.31-33.44V401.28a38.73,38.73,0,0,1,19.31-33.44l118.16-68.22A38.6,38.6,0,0,1,960,294.46ZM960,635a29,29,0,0,0,14.51-3.87l118.17-68.23a29.11,29.11,0,0,0,14.51-25.14V401.28a29.11,29.11,0,0,0-14.51-25.14L974.51,307.92a29.11,29.11,0,0,0-29,0L827.32,376.14a29.12,29.12,0,0,0-14.52,25.14V537.72a29.12,29.12,0,0,0,14.52,25.14l118.16,68.23A29.09,29.09,0,0,0,960,635Z" style="fill:#94bedd"/><path d="M953,404.57l-16.75-33.78L919.48,337a30.35,30.35,0,0,1,0-27l16.75-33.77L953,242.49a7.84,7.84,0,0,1,14,0l16.75,33.78L1000.51,310a30.35,30.35,0,0,1,0,27l-16.74,33.78L967,404.57a7.84,7.84,0,0,1-14,0Z" style="fill:#1c9ef3"/><path d="M1030.08,461.56l33.78-16.75,33.77-16.74a30.35,30.35,0,0,1,27,0l33.78,16.74,33.78,16.75a7.85,7.85,0,0,1,0,14.05l-33.78,16.74L1124.6,509.1a30.35,30.35,0,0,1-27,0l-33.77-16.75-33.78-16.74a7.85,7.85,0,0,1,0-14.05Z" style="fill:#1c9ef3"/><path d="M727.84,461.56l33.78-16.75,33.77-16.74a30.35,30.35,0,0,1,27,0l33.78,16.74,33.78,16.75a7.85,7.85,0,0,1,0,14.05l-33.78,16.74L822.36,509.1a30.35,30.35,0,0,1-27,0l-33.77-16.75-33.78-16.74a7.84,7.84,0,0,1,0-14.05Z" style="fill:#1c9ef3"/><path d="M965.86,453.15l12-35.72L990,381.7A30.34,30.34,0,0,1,1009,362.63l35.72-12,35.73-12a7.84,7.84,0,0,1,9.93,9.93l-12,35.72-12,35.73A30.34,30.34,0,0,1,1047.24,439l-35.72,12-35.73,12a7.84,7.84,0,0,1-9.93-9.93Z" style="fill:#1c9ef3"/><path d="M944.2,463.08l-35.72-12-35.73-12a30.34,30.34,0,0,1-19.07-19.07l-12-35.73-12-35.72a7.83,7.83,0,0,1,9.93-9.93l35.73,12,35.72,12a30.34,30.34,0,0,1,19.07,19.07l12,35.73,12,35.72a7.83,7.83,0,0,1-9.93,9.93Z" style="fill:#1c9ef3"/><path d="M967,534.44l16.75,33.77L1000.51,602a30.35,30.35,0,0,1,0,27l-16.74,33.77L967,696.51a7.83,7.83,0,0,1-14,0l-16.75-33.78L919.48,629a30.35,30.35,0,0,1,0-27l16.75-33.78L953,534.44a7.83,7.83,0,0,1,14,0Z" style="fill:#1c9ef3"/><path d="M954.13,485.85l-12,35.73-12,35.72A30.34,30.34,0,0,1,911,576.37l-35.72,12-35.73,12a7.84,7.84,0,0,1-9.93-9.93l12-35.73,12-35.72A30.39,30.39,0,0,1,872.75,500l35.73-12,35.72-12a7.84,7.84,0,0,1,9.93,9.93Z" style="fill:#1c9ef3"/><path d="M975.79,475.92l35.73,12,35.72,12a30.39,30.39,0,0,1,19.07,19.08l12,35.72,12,35.73a7.84,7.84,0,0,1-9.93,9.93l-35.73-12-35.72-12A30.34,30.34,0,0,1,990,557.3L977.9,521.58l-12-35.73a7.84,7.84,0,0,1,9.93-9.93Z" style="fill:#1c9ef3"/><path d="M745.88,930.42H732.12V906.34H687.4v24.08H673.64V858.19a12,12,0,0,1,12-12h60.2ZM732.12,894.3V858.19H687.4v46.43l10.32-10.32Z" style="fill:#fff"/><path d="M842.19,930.42H824.65L788.87,894.3h37.84V858.19H782v72.23H768.24V870.05l12-11.86h-12v-12h60.19a12.34,12.34,0,0,1,12,12v32.68q0,13.75-12,13.75H818.11v1.9Z" style="fill:#fff"/><path d="M930.76,918.38a12,12,0,0,1-12,12H858.53V870.23l12-12h-12v-12h48.15a12,12,0,0,1,12,12v24.08h.35a11.05,11.05,0,0,1,8.34,3.52,11.89,11.89,0,0,1,3.35,8.51ZM905,882.27V858.19H872.29v34.39l10.32-10.31Zm12,36.11V894.3H872.29v24.08Z" style="fill:#fff"/><path d="M1021.91,930.25H997.84l-32.68-71.38h-6.88l5.16,8.6v62.78H949.68V846h24.25l32.5,71.37h6.89l-5.16-8.6V846h13.75Z" style="fill:#fff"/><path d="M1115.65,918.38a12,12,0,0,1-12,12h-48.16a12,12,0,0,1-12-12V858.19a12,12,0,0,1,12-12h48.16a12,12,0,0,1,12,12Zm-13.76,0V858.19h-44.72v60.19Z" style="fill:#fff"/><path d="M1246.36,846.15l-18.92,84.27h-23.22l-16.34-61.74h-1.72l-16.34,61.74H1146.6l-18.92-84.27h15.48l13.76,72.58h3.44l19.78-72.58h13.76l19.78,72.58h3.44l13.76-72.58Z" style="fill:#fff"/><path d="M1843.26,1048.28l40.32-23.27a12.89,12.89,0,0,0,6.42-11.13V967.33a12.89,12.89,0,0,0-6.42-11.13l-40.32-23.28a12.93,12.93,0,0,0-12.85,0L1790.1,956.2a12.88,12.88,0,0,0-6.43,11.13v46.55a12.88,12.88,0,0,0,6.43,11.13l40.31,23.27A12.88,12.88,0,0,0,1843.26,1048.28Zm-11.54-2.26-40.32-23.28a10.26,10.26,0,0,1-5.11-8.86V967.33a10.26,10.26,0,0,1,5.11-8.86l40.32-23.28a10.22,10.22,0,0,1,10.23,0l40.32,23.28a10.24,10.24,0,0,1,5.12,8.86v46.55a10.24,10.24,0,0,1-5.12,8.86L1842,1046a10.23,10.23,0,0,1-10.23,0Z" style="fill:#fff"/><path d="M1836.84,958.11a7.24,7.24,0,0,1,3.58.95l21.94,12.67a7.2,7.2,0,0,1,3.58,6.21v25.33a7.2,7.2,0,0,1-3.58,6.21l-21.94,12.66a7.17,7.17,0,0,1-7.17,0l-21.94-12.66a7.2,7.2,0,0,1-3.58-6.21V977.94a7.2,7.2,0,0,1,3.58-6.21l21.94-12.67A7.28,7.28,0,0,1,1836.84,958.11Zm0,63.21a5.37,5.37,0,0,0,2.69-.72l21.94-12.66a5.41,5.41,0,0,0,2.69-4.67V977.94a5.41,5.41,0,0,0-2.69-4.67l-21.94-12.67a5.45,5.45,0,0,0-5.39,0l-21.94,12.67a5.41,5.41,0,0,0-2.69,4.67v25.33a5.41,5.41,0,0,0,2.69,4.67l21.94,12.66A5.38,5.38,0,0,0,1836.84,1021.32Z" style="fill:#94bedd"/><path d="M1835.53,978.55l-3.11-6.27-3.11-6.27a5.7,5.7,0,0,1,0-5l3.11-6.27,3.11-6.27a1.46,1.46,0,0,1,2.61,0l3.11,6.27,3.11,6.27a5.7,5.7,0,0,1,0,5l-3.11,6.27-3.11,6.27a1.46,1.46,0,0,1-2.61,0Z" style="fill:#1c9ef3"/><path d="M1849.85,989.13l6.27-3.11,6.27-3.11a5.7,5.7,0,0,1,5,0l6.27,3.11,6.27,3.11a1.46,1.46,0,0,1,0,2.61l-6.27,3.11L1867.4,998a5.7,5.7,0,0,1-5,0l-6.27-3.11-6.27-3.11a1.46,1.46,0,0,1,0-2.61Z" style="fill:#1c9ef3"/><path d="M1793.73,989.13,1800,986l6.28-3.11a5.68,5.68,0,0,1,5,0l6.27,3.11,6.27,3.11a1.46,1.46,0,0,1,0,2.61l-6.27,3.11-6.27,3.11a5.68,5.68,0,0,1-5,0l-6.28-3.11-6.27-3.11a1.46,1.46,0,0,1,0-2.61Z" style="fill:#1c9ef3"/><path d="M1837.92,987.57l2.24-6.63,2.24-6.64a5.65,5.65,0,0,1,1.35-2.18,5.59,5.59,0,0,1,2.19-1.36l6.63-2.23,6.63-2.24a1.45,1.45,0,0,1,1.5.35,1.46,1.46,0,0,1,.35,1.5l-2.24,6.63-2.24,6.63a5.57,5.57,0,0,1-3.54,3.54l-6.63,2.24-6.63,2.23a1.46,1.46,0,0,1-1.85-1.84Z" style="fill:#1c9ef3"/><path d="M1833.9,989.41l-6.63-2.23-6.63-2.24a5.69,5.69,0,0,1-2.19-1.35,5.76,5.76,0,0,1-1.35-2.19l-2.24-6.63-2.23-6.63a1.46,1.46,0,0,1,1.84-1.85l6.63,2.24,6.64,2.23a5.63,5.63,0,0,1,2.18,1.36,5.55,5.55,0,0,1,1.36,2.18l2.23,6.64,2.24,6.63a1.46,1.46,0,0,1-1.85,1.84Z" style="fill:#1c9ef3"/><path d="M1838.14,1002.66l3.11,6.27,3.11,6.27a5.7,5.7,0,0,1,0,5l-3.11,6.27-3.11,6.27a1.46,1.46,0,0,1-2.61,0l-3.11-6.27-3.11-6.27a5.7,5.7,0,0,1,0-5l3.11-6.27,3.11-6.27a1.46,1.46,0,0,1,2.61,0Z" style="fill:#1c9ef3"/><path d="M1835.75,993.64l-2.24,6.63-2.23,6.64a5.63,5.63,0,0,1-1.36,2.18,5.75,5.75,0,0,1-2.18,1.36l-6.64,2.23-6.63,2.24a1.45,1.45,0,0,1-1.49-.35,1.43,1.43,0,0,1-.35-1.5l2.23-6.63,2.24-6.63a5.57,5.57,0,0,1,3.54-3.54l6.63-2.24,6.63-2.23a1.43,1.43,0,0,1,1.5.35A1.45,1.45,0,0,1,1835.75,993.64Z" style="fill:#1c9ef3"/><path d="M1839.77,991.8l6.63,2.23,6.63,2.24a5.69,5.69,0,0,1,2.19,1.35,5.57,5.57,0,0,1,1.35,2.19l2.24,6.63,2.24,6.63a1.46,1.46,0,0,1-1.85,1.85l-6.63-2.24-6.63-2.23a5.63,5.63,0,0,1-3.54-3.54l-2.24-6.64-2.24-6.63a1.45,1.45,0,0,1,.35-1.49A1.43,1.43,0,0,1,1839.77,991.8Z" style="fill:#1c9ef3"/><g style="clip-path:url(#clip-path-2)"><g style="opacity:0.05"><path d="M-51.53,160.24-83.32,96.12-115.12,32a57.63,57.63,0,0,1-6-25.61,57.62,57.62,0,0,1,6-25.6l31.8-64.12,31.79-64.12a14.71,14.71,0,0,1,13.33-8.27,14.71,14.71,0,0,1,13.33,8.27L6.93-83.33,38.72-19.21a57.63,57.63,0,0,1,6,25.6,57.64,57.64,0,0,1-6,25.61L6.93,96.12l-31.8,64.12a14.71,14.71,0,0,1-13.33,8.27A14.71,14.71,0,0,1-51.53,160.24Z" style="fill:#1c9ef3"/><path d="M94.85,268.44,159,236.65l64.13-31.8a57.7,57.7,0,0,1,51.2,0l64.12,31.8,64.12,31.79a14.88,14.88,0,0,1,0,26.66l-64.12,31.8L274.3,358.69a57.61,57.61,0,0,1-51.2,0L159,326.9,94.85,295.1a14.88,14.88,0,0,1,0-26.66Z" style="fill:#1c9ef3"/><path d="M-27.07,252.47l22.86-67.82,22.86-67.82A57.6,57.6,0,0,1,54.86,80.62l67.82-22.86L190.51,34.9a14.88,14.88,0,0,1,18.85,18.85L186.5,121.58,163.64,189.4a57.66,57.66,0,0,1-36.21,36.21L59.61,248.47-8.21,271.33a14.74,14.74,0,0,1-15.28-3.58A14.74,14.74,0,0,1-27.07,252.47Z" style="fill:#1c9ef3"/><path d="M-24.87,406.79l31.8,64.12L38.72,535a57.63,57.63,0,0,1,6,25.6,57.57,57.57,0,0,1-6,25.6L6.93,650.36l-31.8,64.12a14.71,14.71,0,0,1-13.33,8.27,14.71,14.71,0,0,1-13.33-8.27l-31.79-64.12-31.8-64.13a57.56,57.56,0,0,1-6-25.6,57.62,57.62,0,0,1,6-25.6l31.8-64.12,31.79-64.12a14.69,14.69,0,0,1,13.33-8.27A14.69,14.69,0,0,1-24.87,406.79Z" style="fill:#1c9ef3"/><path d="M-8.21,295.7l67.82,22.86,67.82,22.86a57.6,57.6,0,0,1,36.21,36.21l22.86,67.82,22.86,67.82a14.88,14.88,0,0,1-18.85,18.86l-67.83-22.86L54.86,486.41A57.6,57.6,0,0,1,18.65,450.2L-4.21,382.38l-22.86-67.83a14.73,14.73,0,0,1,3.58-15.27A14.72,14.72,0,0,1-8.21,295.7Z" style="fill:#1c9ef3"/></g></g></svg>