<svg id="Layer_1" data-name="Layer 1" xmlns="http://www.w3.org/2000/svg" viewBox="0 0 447.54 500"><path d="M250.81,492.77l169.69-98a54.2,54.2,0,0,0,27-46.82V152a54.19,54.19,0,0,0-27-46.82l-169.69-98a54.31,54.31,0,0,0-54.08,0L27,105.2A54.2,54.2,0,0,0,0,152V348A54.22,54.22,0,0,0,27,394.8l169.7,98A54.18,54.18,0,0,0,250.81,492.77Zm-48.58-9.52-169.7-98A43.2,43.2,0,0,1,11,348V152a43.19,43.19,0,0,1,21.53-37.3l169.7-98a43.2,43.2,0,0,1,43.08,0l169.69,98A43.18,43.18,0,0,1,436.54,152V348A43.19,43.19,0,0,1,415,385.28l-169.69,98a43.22,43.22,0,0,1-43.08,0Z" style="fill:#fff"/><path d="M223.77,113.22a30.12,30.12,0,0,1,15.08,4l92.34,53.31a30.24,30.24,0,0,1,15.09,26.13V303.31a30.24,30.24,0,0,1-15.09,26.13l-92.34,53.31a30.24,30.24,0,0,1-30.17,0l-92.34-53.31a30.25,30.25,0,0,1-15.08-26.13V196.69a30.25,30.25,0,0,1,15.08-26.13l92.34-53.31A30.15,30.15,0,0,1,223.77,113.22Zm0,266.08a22.68,22.68,0,0,0,11.34-3L327.45,323a22.77,22.77,0,0,0,11.34-19.65V196.69A22.77,22.77,0,0,0,327.45,177l-92.34-53.31a22.74,22.74,0,0,0-22.68,0L120.09,177a22.75,22.75,0,0,0-11.35,19.65V303.31A22.75,22.75,0,0,0,120.09,323l92.34,53.31A22.65,22.65,0,0,0,223.77,379.3Z" style="fill:#94bedd"/><path d="M218.28,199.26l-13.09-26.4-13.08-26.39a23.72,23.72,0,0,1,0-21.08L205.19,99l13.09-26.39a6.12,6.12,0,0,1,11,0L242.34,99l13.09,26.39a23.72,23.72,0,0,1,0,21.08l-13.09,26.39-13.09,26.4a6.12,6.12,0,0,1-11,0Z" style="fill:#1c9ef3"/><path d="M278.53,243.8l26.4-13.09,26.39-13.09a23.72,23.72,0,0,1,21.08,0l26.39,13.09,26.4,13.09a6.12,6.12,0,0,1,0,11l-26.4,13.09L352.4,280.94a23.72,23.72,0,0,1-21.08,0l-26.39-13.08-26.4-13.09a6.12,6.12,0,0,1,0-11Z" style="fill:#1c9ef3"/><path d="M42.35,243.8l26.39-13.09,26.4-13.09a23.7,23.7,0,0,1,21.07,0l26.4,13.09L169,243.8a6.12,6.12,0,0,1,0,11l-26.39,13.09-26.4,13.08a23.7,23.7,0,0,1-21.07,0l-26.4-13.08L42.35,254.77a6.12,6.12,0,0,1,0-11Z" style="fill:#1c9ef3"/><path d="M228.35,237.22l9.41-27.91,9.41-27.92a23.66,23.66,0,0,1,14.9-14.9L290,157.08l27.92-9.41a6.13,6.13,0,0,1,7.76,7.76l-9.41,27.91-9.41,27.92a23.71,23.71,0,0,1-14.91,14.9L264,235.57,236.11,245a6.12,6.12,0,0,1-7.76-7.76Z" style="fill:#1c9ef3"/><path d="M211.43,245l-27.92-9.41-27.92-9.41a23.66,23.66,0,0,1-14.9-14.9l-9.41-27.92-9.41-27.91a6.12,6.12,0,0,1,7.76-7.76l27.92,9.41,27.91,9.41a23.71,23.71,0,0,1,14.91,14.9l9.41,27.92,9.41,27.91a6.13,6.13,0,0,1-7.76,7.76Z" style="fill:#1c9ef3"/><path d="M229.25,300.74l13.09,26.4,13.09,26.39a23.72,23.72,0,0,1,0,21.08L242.34,401l-13.09,26.39a6.12,6.12,0,0,1-11,0L205.19,401l-13.08-26.39a23.72,23.72,0,0,1,0-21.08l13.08-26.39,13.09-26.4a6.12,6.12,0,0,1,11,0Z" style="fill:#1c9ef3"/><path d="M219.19,262.78l-9.41,27.91-9.41,27.92a23.71,23.71,0,0,1-14.91,14.9l-27.91,9.41-27.92,9.41a6.12,6.12,0,0,1-7.76-7.76l9.41-27.91,9.41-27.92a23.66,23.66,0,0,1,14.9-14.9l27.92-9.41L211.43,255a6.13,6.13,0,0,1,7.76,7.76Z" style="fill:#1c9ef3"/><path d="M236.11,255,264,264.43l27.91,9.41a23.71,23.71,0,0,1,14.91,14.9l9.41,27.92,9.41,27.91a6.13,6.13,0,0,1-7.76,7.76L290,342.92l-27.92-9.41a23.66,23.66,0,0,1-14.9-14.9l-9.41-27.92-9.41-27.91a6.12,6.12,0,0,1,7.76-7.76Z" style="fill:#1c9ef3"/></svg>